<?xml version="1.0" encoding="UTF-8"?>
<svg width="188px" height="188px" viewBox="0 0 188 188" xmlns="http://www.w3.org/2000/svg" xmlns:xlink="http://www.w3.org/1999/xlink" version="1.1">
 <!-- Generated by Pixelmator Pro 1.6.4 -->
 <g id="group">
  <path id="Path" d="M76.193 -184.343 C30.891 -173.301 -12.619 -144.951 -46.915 -104.066 -71.997 -74.522 -87.61 -45.575 -99.895 -5.585 -105.782 13.215 -107.317 21.273 -110.645 46.341 -112.948 61.859 -112.18 108.712 -109.365 128.11 -95.8 227.188 -32.582 308.957 56.998 343.574 77.473 351.333 81.312 351.93 124.822 351.93 168.588 352.229 171.915 351.93 193.927 343.574 286.066 309.553 350.563 224.203 362.848 120.351 364.384 106.922 364.384 59.173 362.848 46.341 359.521 16.797 351.075 -13.941 340.325 -37.219 336.23 -46.172 331.367 -56.915 329.32 -61.093 316.267 -90.04 272.757 -136.595 240.764 -155.993 224.384 -166.139 196.486 -179.27 186.504 -181.657 183.689 -182.553 174.987 -184.343 167.309 -186.134 147.857 -190.61 97.436 -189.715 76.193 -184.343 Z" fill="#000000" fill-opacity="1" stroke="none"/>
 </g>
</svg>
