<?xml version="1.0" standalone="no"?>
<!DOCTYPE svg PUBLIC "-//W3C//DTD SVG 20010904//EN"
 "http://www.w3.org/TR/2001/REC-SVG-20010904/DTD/svg10.dtd">
<svg version="1.0" xmlns="http://www.w3.org/2000/svg"
 width="188.000000pt" height="188.000000pt" viewBox="0 0 188.000000 188.000000"
 preserveAspectRatio="xMidYMid meet">
<metadata>
Created by potrace 1.11, written by Peter Selinger 2001-2013
</metadata>
<g transform="translate(0.000000,188.000000) scale(0.100000,-0.100000)"
fill="#000000" stroke="none">
<path d="M745 1833 c-177 -37 -347 -132 -481 -269 -98 -99 -159 -196 -207
-330 -23 -63 -29 -90 -42 -174 -9 -52 -6 -209 5 -274 53 -332 300 -606 650
-722 80 -26 95 -28 265 -28 171 -1 184 0 270 28 360 114 612 400 660 748 6 45
6 205 0 248 -13 99 -46 202 -88 280 -16 30 -35 66 -43 80 -51 97 -221 253
-346 318 -64 34 -173 78 -212 86 -11 3 -45 9 -75 15 -76 15 -273 12 -356 -6z"/>
</g>
</svg>
